<svg width="37" height="20" viewBox="0 0 37 20" fill="none" xmlns="http://www.w3.org/2000/svg">
<g id="bell">
<path id="Vector" d="M18 14.7742C18.2237 14.7742 18.4215 14.7011 18.5935 14.5548C18.7656 14.4086 18.8688 14.2237 18.9032 14H17.0968C17.1312 14.2237 17.2344 14.4086 17.4065 14.5548C17.5785 14.7011 17.7763 14.7742 18 14.7742ZM14 13.4839H22V12.7097H20.9677V10.1548C20.9677 9.42188 20.7613 8.75556 20.3484 8.15587C19.9355 7.55618 19.3677 7.17304 18.6452 7.00645V6.64516C18.6452 6.45879 18.5839 6.30466 18.4615 6.18279C18.3391 6.06093 18.1842 6 17.997 6C17.8098 6 17.6559 6.06093 17.5355 6.18279C17.4151 6.30466 17.3548 6.45879 17.3548 6.64516V7.00645C16.6323 7.17304 16.0645 7.55618 15.6516 8.15587C15.2387 8.75556 15.0323 9.42188 15.0323 10.1548V12.7097H14V13.4839Z" fill="black"/>
</g>
</svg>
